<?xml version="1.0" encoding="UTF-8"?>
<svg width="24" height="24" viewBox="0 0 24 24" fill="none" xmlns="http://www.w3.org/2000/svg">
  <path d="M12 13C13.6569 13 15 11.6569 15 10C15 8.34315 13.6569 7 12 7C10.3431 7 9 8.34315 9 10C9 11.6569 10.3431 13 12 13Z" stroke="#9B7B4D" stroke-width="2" stroke-linecap="round" stroke-linejoin="round"/>
  <path d="M12 22C12 22 19 16 19 10C19 6.13401 15.866 3 12 3C8.13401 3 5 6.13401 5 10C5 16 12 22 12 22Z" stroke="#9B7B4D" stroke-width="2" stroke-linecap="round" stroke-linejoin="round"/>
  <circle cx="12" cy="10" r="2" fill="#9B7B4D" fill-opacity="0.2"/>
  <path d="M12 3C15.866 3 19 6.13401 19 10C19 16 12 22 12 22C12 22 5 16 5 10C5 6.13401 8.13401 3 12 3Z" fill="#9B7B4D" fill-opacity="0.1"/>
</svg>
